<svg width="962" height="476" viewBox="0 0 962 476" fill="none" xmlns="http://www.w3.org/2000/svg">
<path fill-rule="evenodd" clip-rule="evenodd" d="M325.5 268.5L324 267L322.5 260.5L321 252.5L319 240L318.5 226L319.5 206L322.5 188L328 168L334 153L341.5 139.5L353 123.5L366.5 109L386.5 93.5L403.5 84L422 76L437.5 71L457 66.5L464.5 66L451 70.5L438.5 76L427 82.5L413.5 92.5L402 103.5L393 114.5L385 127.5L380 138.5L377 146L379.5 144L384 138.5L394 127.5L407 116L417.5 108.5L431.5 100.5L446 93.5L460.5 88.5L480 84.5L499.5 83L524 84.5L543.5 89L560 95L574.5 102L585.5 108.5L598.5 118L614.5 133L623.5 143.5L633 157L642 173L649.5 192.5L655.5 215L658 231.5L656.5 228.5L649 211L640.5 197L630.5 184L622 175L609.5 164.5L594.5 155L579 147.5L578.5 148L589 157.5L598 167.5L605.5 177.5L612.5 188.5L621 205L628.5 225L632 240L634 255L634.5 268L634 288L632.5 299L616 305L590 314L565 321.5L531.5 329L519.5 331.5L520 329.5L519.5 327L518 324.5L516 324L517 311L517.5 297.5L522 294L531.5 282.5L536 274L540 264L541.5 254L542 242L539.5 228.5L536 220.5L534.5 216.5L545.5 203L553 193.5L554.5 191L555.5 190.25L554 192.5L556 197.5L554 201.5L554.5 205.5L557 208.5L561 211V209.5L559 204L563.5 202.5L566 209.5L567.5 207L568 204L567 199.5L564 196.5L562.5 195L559 186L560 183.5L559 181L558.5 177.5L558 173.5L557 172L555.5 171L554.5 171.5L549.5 156.5L550 155V150.5L548.5 146.5L546 143.5L543.5 142.5L546 149.5L541.5 151L539 145L538 146L537 149.5L537.5 153L540 156.5L543 158L548.5 175L552.5 172.667L549 175L547 178L546.5 179.5L545.5 181.5L535 188L529 192L526 192.5L524 191L515.75 179.5L509.5 171L504 166L503 165L505 163L509 157.5L511 152L511.5 148V142L510.5 139L508.5 134L504 128L501 125.5L496.5 123L488.5 120.5L482 120L477.5 121L473 123L468 127L465 131L462.5 136.5L461 140.5L460.5 146.5L462 153.5L462.5 156L455.5 157.5L447.5 161.5L435 169L420.5 179L409 189L402.5 198.5L395 212.5L390 221.5L383 237L379 247L376.5 254L376 257L376.5 258.5L378 259L380 258L381 257L380.5 260L381 264.5L382.5 266L385 265.5L386.5 264.5L387.5 266.5L389 267L392 266L393.5 265L396 263.5C396.5 263.167 397.5 262.4 397.5 262C397.5 261.6 398.167 258.833 398.5 257.5V251.5V250L401.5 251.5L404.5 250.5L405.5 248.5L405 245.5L402.5 240L401 237L403 232.5L406.5 227L413 217.5L419.5 211.5L424.5 208.5L419 217.5L417 222.5L414 230L412.5 239L412 249L413 257.5L414.5 265L415 267.5L410 276.5L409 279L410.5 279.5L409 280L402 281.5L390 287L383.5 290.5L383 293L382 294L378 293L371 295.5L358 300.5L356 299.5L344.5 286.5L327.5 270L325.5 268.5Z" fill="url(#paint0_linear)"/>
<path d="M546 149.5L545 150L552.5 172.5L554.5 171L549.5 156L550 155V151L549.5 148L547 144L543.5 142.5L546 149.5Z" fill="#276C4E"/>
<path d="M562.5 203L557.5 188.5L559 186L561.5 192L563 195.5L565.5 197L567 200L568 203.5L567.5 207L566 209.5L563.5 202.5L562.5 203Z" fill="#276C4E"/>
<path d="M324.5 267.5C324.5 267.5 318.5 248 318.5 229.5C318.5 74.5 469.5 65 469.5 65C469.5 65 400 76.5 376.5 147.5C465 30 644 81.5 658.5 235C638 166 576.5 146.5 576.5 146.5C576.5 146.5 648 198 632.5 299" stroke="#44F1A6"/>
<path d="M264.205 233C269.177 117.838 364.114 26 480.5 26C600.07 26 697 122.93 697 242.5C697 248.902 696.722 255.239 696.178 261.5" stroke="#44F1A6"/>
<path d="M425.762 207C417.139 218.03 412 231.915 412 247C412 254.163 413.159 261.055 415.299 267.5M437 298.238C448.03 306.861 461.915 312 477 312C484.722 312 492.129 310.654 499 308.183M534.5 216.661C539.289 225.718 542 236.042 542 247C542 267.584 532.432 285.934 517.5 297.844" stroke="#44F1A6"/>
<path d="M326.5 419.5C325.7 421.1 323.5 422.833 322.5 423.5L329.5 421.5L335.5 418L341 412L346 402.5L349 390L350 380L351.5 377L364 368L382.5 354L396 343.5L410 331.5L416.5 326L423 319.5L429 311L438.5 296L447.5 280L455 265.5L461 254L455.5 251L452.5 251.5L448 255L442.5 260.5L439 265.5L435.5 274L430 290L425 304L421.5 309.5L415 315.5L406.5 322.5L397.5 328.5L378.5 344.5L365.5 354L351 364L349.5 365.5L346.5 370.5L341 380L335 388.5L330.5 393.5V395L329.5 411C328.833 413.167 327.3 417.9 326.5 419.5Z" fill="#1D3F30"/>
<path d="M469 366C463 368 455.833 373.833 453 376.5L471.5 379.913L481.5 376L488 367.5L497 355L504 350L509 347.5L510 345.5L511 343C509.667 343.333 506.6 343.9 505 343.5C503.4 343.1 502 342.333 501.5 342C500.667 342.833 498.3 344.9 495.5 346.5C492 348.5 487.5 354.5 486.5 356C485.5 357.5 476.5 363.5 469 366Z" fill="url(#paint1_linear)"/>
<path d="M200 439.5L192 443L255 475.5L260.5 474L268.5 469L280 458.5L292 446.5L302.5 437L314 428L319.5 424.5L315 425L306 423L298.5 418.5L294.5 415L291.5 418L277 425L260.5 428.5L239 432L214 436L200 439.5Z" fill="url(#paint2_linear)"/>
<path d="M396.5 234.75V238.5L399 242L402 245.5L405 247.5L404.5 244.5L402 239.5L400.5 236.5L401 235.5L405 229L410 221.5L415 215.5L420.5 211L431.5 203L436 200.5L436.5 197V195L427 199L420 203L415 207L409 213.5L405.5 219L403 223.5L398 231L396.5 234.75Z" fill="#276C4E"/>
<path d="M499 136.5C497.8 137.3 497.5 141.833 497.5 144C497.333 144.833 497.1 146.9 497.5 148.5C498 150.5 499 151 500.5 150C502 149 502.5 146.5 502.5 143.5C502.5 141.1 501.833 138.167 501.5 137C501.167 136.5 500.2 135.7 499 136.5Z" fill="#30986B"/>
<path d="M520 327C519.6 324.2 517.167 324.167 516 324.5V328C515.833 328.5 515.8 329.7 517 330.5C518.2 331.3 518.5 333.5 518.5 334.5C519.167 333.167 520.4 329.8 520 327Z" fill="#30986B"/>
<path d="M506.5 156C506.1 157.2 503 161.5 501.5 163.5L503 165L510.5 155L511.5 148L511 139.5L509 134L506.5 136L507.5 139C508 141.333 509 146.3 509 147.5C509 149 507 154.5 506.5 156Z" fill="#30986B"/>
<path d="M525.5 192.5L524 196L522 196.5L520.5 195.5L519 193.5L517 191L512.5 185.5L507.5 179.5L502 173L497 165.5V163.5L498 162.5H500.5L503.5 165.5L509 170.5L513.5 176L519.5 184L525.5 192.5Z" fill="#30986B"/>
<path d="M525.5 218V220.5L527 221.5L529 221L532.5 218.5L538.5 211.5L540.5 209L544 204.5L548.5 199L553 193.5L555 190.5L557.5 188L559.5 185V182.5L559 181L558 181.5L555 184L553 187L550.5 191L545 196.5L538 204L528 214.5L525.5 218Z" fill="#276C4E"/>
<path d="M516 330.5C516 331.3 513.667 334.167 512.5 335.5H511.5C511 335.5 510.5 334 510 333C509.5 332 508 325 507.5 321C507.1 317.8 507 311.667 507 309L508 300C508.5 296.5 509.6 288.9 510 286.5C510.4 284.1 509.833 280.167 509.5 278.5L508 272.5L503.5 264.5L498.5 253.5L493.5 241.5L489.5 235C488.167 233.333 485.2 229.4 484 227C482.8 224.6 482.5 221.333 482.5 220L484.5 211.5C485.333 207.833 487.3 199.6 488.5 196C489.7 192.4 490.667 190.5 491 190L492 191.5L497.5 199L497 213.5C496.833 218.167 496.5 227.7 496.5 228.5C496.5 229.3 499.833 235.167 501.5 238L509.5 253.5C511.833 259.167 516.7 271.1 517.5 273.5C518.3 275.9 518.167 280.167 518 282L517.5 294L517 306L516.5 317.5L516 326.5V330.5Z" fill="#276C4E"/>
<path d="M286.5 351.5C286.833 352 287.5 353.3 287.5 354.5C287.5 355.7 286.833 356.333 286.5 356.5C286.396 356.5 286.187 356.618 285.947 357M286.5 351.5C287.319 343.149 291.258 326.401 300.5 325.057M286.5 351.5L327.588 357.5M289 404C288.667 403.5 289 404.4 293 412C293.449 412.852 293.99 413.689 294.611 414.5M289 404C289.333 403.833 290 403 290 401C290 399 288.333 398.5 287.5 398.5C287.48 398.338 287.46 398.171 287.44 398M289 404L329.393 411M285 375C285.167 376 285.5 378.4 285.5 380C285.5 380.117 285.507 380.285 285.52 380.5M285 375C285 369.833 285.1 359.2 285.5 358C285.65 357.551 285.804 357.228 285.947 357M285 375L330 381.209M300.5 325.057C300.665 325.033 300.832 325.014 301 325C310.6 324.2 316.333 329 318 331.5C320.167 333.5 325 340.7 327 353.5C327.185 354.682 327.383 356.024 327.588 357.5M300.5 325.057L325 314.679M412 280C412.5 279.833 412.2 279.6 407 280C401.8 280.4 389.167 287.167 383.5 290.5C383.5 291.451 383.299 292.884 382.643 293.5M412 280L409 278.5C413.667 270.167 423.5 252.3 425.5 247.5C428 241.5 430 237.5 431.5 237C431.791 236.903 432.01 236.725 432.172 236.5M412 280C412.833 280.333 414.9 281.7 416.5 284.5C418.1 287.3 418.833 288.667 419 289M325 314.679C328.833 314.286 337.8 317.3 343 332.5C346.4 342.437 348.417 355.053 349.5 365.066M325 314.679L357.5 300.913M350.5 378C350.385 374.942 350.073 370.369 349.5 365.066M382.643 293.5C382.263 293.856 381.732 293.939 381 293.5C379 292.3 376.167 293 375 293.5L357.5 300.913M382.643 293.5C386.428 296.5 394.4 305.2 396 316C396.648 320.373 397.208 324.674 397.668 328.5M399 341C398.802 338.719 398.344 334.123 397.668 328.5M322 423.401C322.868 423.022 323.705 422.557 324.5 422C326.938 420.293 328.485 416.298 329.393 411M322 423.401C312.928 427.366 300.359 422.01 294.611 414.5M322 423.401C322.642 423.408 323.494 423.334 324.5 423.143M461 254C460.833 254.333 460 255.9 458 259.5C455.5 264 450 275 445.5 283C441 291 429 313 423 319.5C421.268 321.376 418.704 323.872 415.899 326.5M461 254C461.333 253.833 462.7 253.5 465.5 253.5C466.252 253.5 466.949 253.693 467.579 254M461 254C460 253.167 457.5 251.4 455.5 251C453 250.5 448.5 254 442.5 260.5C436.5 267 429 294.5 425.5 303.5C422.7 310.7 405.779 323.167 397.668 328.5M330.475 393.5C331.983 392 336.1 387.3 340.5 380.5C344.9 373.7 348.333 367.378 349.5 365.066M330.475 393.5C330.455 391.36 330.396 389.184 330.306 387M330.475 393.5C330.516 397.91 330.392 402.163 330.036 406M349.5 365.066C353 362.878 362.7 356.4 373.5 348C384.3 339.6 394.112 331.5 397.668 328.5M432.172 236.5C432.676 235.797 432.626 234.631 432.5 234C432.833 233.333 433.8 231.4 435 229C435.48 228.04 436.113 227.029 436.769 226M432.172 236.5C433.781 239 438.6 244.9 445 248.5M436.769 226C438.164 223.812 439.66 221.54 440 219.5C440.224 218.157 439.936 217.168 439.522 216.5M436.769 226C438.346 230 443 239.4 449 245M444.5 172.5C443.22 174.633 439.028 184.411 436.893 195M435.759 208C436.129 212.702 437.567 214.917 438.5 215.5C438.793 215.647 439.197 215.974 439.522 216.5M435.759 208C435.601 205.981 435.64 203.504 436 200.5C436.02 200.333 436.041 200.167 436.062 200M435.759 208C435.84 209.167 437.7 211.7 444.5 212.5M439.522 216.5C439.848 217 441.2 218.2 444 219C446.8 219.8 457.167 222.333 462 223.5M327.588 357.5C327.82 359.175 328.061 361.021 328.3 363M285.947 357L328.3 363M328.3 363C328.949 368.366 329.584 374.702 330 381.209M330 381.209C330.123 383.131 330.227 385.068 330.306 387M285.52 380.5L330.306 387M285.52 380.5C285.685 383.144 286.807 392.763 287.44 398M287.44 398L330.036 406M330.036 406C329.873 407.763 329.661 409.438 329.393 411M467.579 254C468.386 251.333 471 245 475 241C479 237 481.333 235 482 234.5M467.579 254C468.349 254.376 469.019 254.923 469.567 255.5M469.567 255.5C470.241 256.209 470.731 256.963 471 257.5C472.833 259.833 477.4 265.5 481 269.5C485.5 274.5 491.5 281.5 494.5 284.5C496.171 286.171 496.601 287.067 497 287.532M469.567 255.5C470.711 253.667 474.1 249.1 478.5 245.5C482.9 241.9 484.333 240.667 484.5 240.5M436.062 200C434.26 201.098 431.81 202.667 429.133 204.5M436.062 200C436.276 198.331 436.56 196.656 436.893 195M394.5 243.5C395.54 246.204 396.84 248.216 398.255 249.5M398.255 249.5C400.242 251.301 402.456 251.668 404.5 250.5C405.345 250.017 405.543 248.914 405.34 247.5M398.255 249.5C398.504 253 398.6 260.5 397 262.5C395.635 264.207 394.036 265.681 393 265.171M392.5 250C392.167 253 391.6 259.8 392 263C392.159 264.269 392.519 264.934 393 265.171M393 265.171C392.5 265.781 391 267 389 267C387.688 267 386.927 265.899 386.5 264.202M387.312 249.5C386.875 251 386 254.9 386 258.5C386 260.639 386.113 262.665 386.5 264.202M386.5 264.202C386.333 264.801 385.3 266 382.5 266C380.721 266 380.597 261.288 381 256.356M382 248.5C381.635 250.626 381.231 253.528 381 256.356M381 256.356C380.667 257.238 379.5 259 377.5 259C375.5 259 376 255.667 376.5 254C379 246.833 384.7 231.2 387.5 226C391 219.5 403.5 196 407 191.5C409.767 187.943 414.096 183.76 419 179.941M419 179.941C420.299 178.929 421.639 177.943 423 177C429.5 172.5 451 157 461.5 156C461.95 155.944 462.453 155.886 463 155.829M419 179.941C421.748 182.835 425.421 188.927 423 194.315M419.5 198.5C421.219 197.211 422.338 195.789 423 194.315M419.5 198.5L422.5 201.5M419.5 198.5C417.471 200.022 415.635 201.04 414 201.684M405 201C406.12 202.244 409.189 203.581 414 201.684M408 197.5C409.667 197.833 413.6 197.8 416 195C418.4 192.2 418.333 188.167 418 186.5M423 194.315L426.5 199.208M414 201.684L418.5 204.5M424 208.157C419.187 211.732 414.473 215.702 412 219C407.2 225.4 402.333 233.333 400.5 236.5C402.245 239.292 404.868 244.229 405.34 247.5M424 208.157L422.5 207M424 208.157C424.834 207.537 425.671 206.929 426.5 206.339M426.5 206.339L424.5 204M426.5 206.339C427.392 205.703 428.274 205.088 429.133 204.5M429.133 204.5L427.5 201.5M436.893 195C430.096 196.833 414.6 203.7 407 216.5C397.5 232.5 393.011 233.5 398.255 241C402.451 247 404.726 247.833 405.34 247.5M497 287.532C497.317 287.902 497.614 288 498.5 288C500.667 287.833 505.5 287.2 507.5 286M497 287.532C497.144 287.599 497.367 288.011 497.608 289M516 330C516.73 330.365 518.791 332.328 518.103 335.5M516 330C515.69 329.845 515.716 327.718 515.901 324.5M516 330C516.333 329.333 516.5 329 514.5 333C512.5 337 511 335.333 510.5 334C509.5 331.333 507.4 323.7 507 314.5C506.5 303 509 295.5 510 285.5C511 275.5 504.5 266.5 501.5 260C498.5 253.5 493.5 240 488 233C482.5 226 482 223 483 217.5C484 212 490.5 187.5 491 189.5C491.4 191.1 495.5 196.5 497.5 199M497.5 199C500.167 202.333 506.4 209.8 510 213C510.444 213.395 510.947 213.848 511.5 214.336M497.5 199L497.059 212M528.5 192.5C533.167 189.333 542.8 182.8 544 182C545.5 181 547 180.5 547 178.5C547 177.666 547.609 176.658 548.5 175.657M528.5 192.5H525.5M528.5 192.5L529.5 197.5M525.5 192.5C521.333 186.333 511.8 172.9 507 168.5C505.565 167.184 504.272 165.954 503 164.81M525.5 192.5L523.789 196.5M496.534 227.5L496.5 228.5C497.083 229.594 498.114 231.531 499.423 234M496.534 227.5C495.356 227.5 492.7 227.7 491.5 228.5M496.534 227.5L496.941 215.5M499.423 234C501.106 237.173 503.25 241.226 505.5 245.5C510.5 255 517 270.5 518 274.5C518.254 275.516 518.347 276.661 518.344 278C518.341 279.298 518.248 280.778 518.125 282.5C517.875 286 517.5 290.5 517.5 296.5C517.5 299.301 517.364 302.593 517.168 306M499.423 234C498.282 233.833 495.8 233.7 495 234.5M497.608 289C497.926 290.308 498.272 292.628 498.5 296.5C498.639 298.866 498.778 302.046 498.918 305.5M497.608 289C499.239 289.489 503.6 290.174 508 289M498.918 305.5C499.278 314.454 499.639 325.253 500 328.5C500.166 329.991 500.222 331.976 500.313 334M498.918 305.5C499.278 306.667 501.9 308.8 509.5 308M517.168 306C517.112 306.167 516.6 306.6 515 307M517.168 306C516.784 312.661 516.172 319.763 515.901 324.5M500.5 337.062C501.167 339.417 504.3 342.713 511.5 337.062M500.5 337.062C500.669 339.043 500.951 340.825 501.5 341.929M500.5 337.062C500.416 336.071 500.36 335.031 500.313 334M518.103 335.5C517.848 336.674 517.216 338.014 516 339.5C514.629 341.176 513.073 342.248 511.5 342.901M518.103 335.5C518.54 334.638 519.122 333.217 519.5 331.662M515.901 324.5C516.635 324 518.382 323.7 519.5 326.5C520.093 327.984 519.926 329.908 519.5 331.662M488 213C488.5 213.667 490.2 215.1 493 215.5C495.8 215.9 496.794 215.667 496.941 215.5M496.941 215.5L497.059 212M488.5 209C489.653 210.167 492.466 212.5 494.5 212.5C496.534 212.5 497.054 212.167 497.059 212M511.5 214.336C512.892 215.563 514.602 217.009 516.5 218.289M511.5 214.336C512.048 213.166 513.997 211.225 518 210.035M526 209C535.6 209 531 216.5 538.979 211M526 209C522.717 209 520.081 209.416 518 210.035M526 209V203M538.979 211C536.863 213.548 534.804 215.97 533 218C531.158 220.072 529.184 221.137 527.18 221.5M538.979 211C544.368 204.512 550.128 197.21 553 193.5C553.193 193.113 553.536 192.517 554 191.839M516.5 218.289C517.274 216.971 520.558 214.336 527.5 214.336M516.5 218.289C519.729 220.467 523.503 222.166 527.18 221.5M518 210.035L523.789 196.5M554.5 191.141C555.178 190.24 556.03 189.276 557 188.5C558.343 187.426 558.663 186.708 559.063 185.5M554.5 191.141C554.667 189.761 554.2 186.4 551 184M554.5 191.141C554.321 191.38 554.154 191.614 554 191.839M463 155.829C468.938 155.213 480.175 154.669 487.5 156.5C490.506 157.251 492.924 158.138 495 159.161M463 155.829C462 153.886 460.1 148.8 460.5 144C461 138 466.5 120 484 120C488.513 120 492.527 120.964 496 122.55C496.688 122.864 497.355 123.203 498 123.563M503 164.81C504.167 163.707 506.9 160.8 508.5 158C510.5 154.5 511.5 152.5 511.5 143.5C511.5 140.615 510.473 137.165 508.5 133.809M503 164.81C502.499 164.36 502.002 163.924 501.5 163.5M497.5 144.5C497.333 141.667 497.6 136 500 136C501.269 136 502.091 138.059 502.39 140.623M497.5 147C497.5 148.207 497.76 149.992 498.623 150.5M500 140C500.333 140.667 500.8 143 500 147M498.623 150.5C499.07 150.763 499.68 150.683 500.5 150C502.231 148.558 502.797 144.12 502.39 140.623M498.623 150.5C498.582 151.167 498.3 153 497.5 155C496.7 157 495.5 158.607 495 159.161M495 159.161C497.1 160.195 498.849 161.368 500.5 162.68M498 123.563C498.833 125.709 500.5 130.5 500.5 132.5M498 123.563C502.678 126.175 506.22 129.93 508.5 133.809M502.39 140.623L506.535 136M508.5 133.809L506.535 136M527.18 221.5C526.287 221.333 524.7 220.4 525.5 218C526.3 215.6 533.167 208.667 536.5 205.5L548 193.5C549 192.667 551.2 190.6 552 189C553 187 555 183.5 556.5 182.5C557.7 181.7 558.709 180.833 559.063 180.5M559.063 180.5C559.17 181.097 559.307 181.614 559.5 182C559.963 182.926 559.408 184.459 559.063 185.5M559.063 180.5C558.619 178.006 558.71 174.114 557.5 172.5C556.361 170.982 555.799 170.616 554.5 171.184M500.5 162.68C499.167 162.287 496.6 162.1 497 164.5C497.4 166.9 504.5 175.833 508 180L519 193.5C519.5 194.5 520.8 196.5 522 196.5C523.2 196.5 523.693 196.5 523.789 196.5M500.5 162.68C500.837 162.948 501.169 163.221 501.5 163.5M506.535 136C507.857 138.946 510 146.271 508 152C506 157.729 502.833 162.054 501.5 163.5M501.5 341.929C501.765 342.462 502.093 342.837 502.5 343C504.238 343.695 507.911 344.391 511.5 342.901M501.5 341.929C497.667 344.619 489.6 350.7 488 353.5C486 357 479 362.5 471.5 365C464 367.5 453 374.5 453 377M471.5 380C482.5 377 483 375 489 366.5C495 358 494.5 356.5 499.5 353C504.5 349.5 509.5 348 509.5 346.5C509.5 345.3 510.833 343.6 511.5 342.901M294.611 414.5C292.907 417.833 282.6 425.5 255 429.5C220.5 434.5 209 435 192 443M324.5 423.143C328.197 422.442 333.969 420.16 339 414.5C347 405.5 348.5 394.5 349.5 387C350.5 379.5 348 379 355.5 374C361.5 370 389 349 402 339C405.196 336.23 410.926 331.157 415.899 326.5M324.5 423.143C321.833 423.262 312.4 427.4 296 443C275.5 462.5 264.5 475 255 475.5M415.899 326.5C417.766 327.833 427.8 331 453 333C478.2 335 495.042 334.5 500.313 334M519.5 331.662C554.833 325.275 636 304.9 678 274.5C730.5 236.5 803 184 864 178C911.772 173.301 954.667 184.333 960.5 187M357.5 300.913C338.5 277.442 289 230.2 243 229C185.5 227.5 129 214.559 89 183.5C46.5 150.5 20.5 145.167 1 145.5M548.5 175.657C549.746 174.258 551.543 172.874 553 172C553.602 171.639 554.088 171.365 554.5 171.184M548.5 175.657L543 158C541.667 157.833 538.7 156.5 537.5 152.5C536.3 148.5 538 145.5 539 144.5L541.5 151L546 149.5L543.5 142.5C545 142.333 548.3 144.5 549.5 148.5C550.7 152.5 550 154.667 549.5 156L554.5 171.184M554 191.839L556 198C555 199.333 553.3 202.7 554.5 205.5C555.7 208.3 559.667 210.333 561.5 211L559.063 204L563.5 202.5L566 210C566.833 208.667 568.7 205 567.5 201C566.3 197 563.333 195.833 562.5 195.5L559.063 185.5" stroke="#44F1A6"/>
<path d="M545 150L552.429 172.5M562.5 203L557.547 188" stroke="#44F1A6"/>
<path d="M449.5 163.5C450.667 161.5 455.4 157.7 465 158.5C465.885 158.574 466.718 158.651 467.5 158.731M478.5 161C478.046 160.546 475.202 159.515 467.5 158.731M484 163.5C484.711 163.989 485.597 164.686 486.5 165.53M490 180.5C490 180.333 490.2 178.9 491 174.5C491.587 171.273 488.982 167.849 486.5 165.53M467.5 158.731C465 163.987 459.5 176.2 457.5 183C456.957 184.847 456.377 186.711 455.8 188.5M452 199.5C452.599 197.903 453.735 194.741 454.981 191M455.8 188.5L478 191.5C478.833 191.833 480.6 192.7 481 193.5M455.8 188.5C455.525 189.354 455.25 190.19 454.981 191M454.981 191L477.5 194C478.167 194.167 479.6 194.7 480 195.5M463 215.5C465.833 216.333 471.8 217.1 473 213.5C474.2 209.9 475.167 206.667 475.5 205.5M471 224.5C472.185 224.697 474.212 224.661 476 223.767C477.23 223.152 478.348 222.13 479 220.5M486.5 165.53L480 190M481 213.5L486.5 192.5" stroke="#44F1A6"/>
<path d="M471.671 178.021L471.195 180.846C468.221 180.345 466.293 177.072 466.889 173.536C467.485 170 470.378 167.54 473.352 168.04C471.428 167.716 469.556 169.308 469.17 171.597C468.953 172.883 469.253 174.116 469.899 175.006C469.898 175.008 469.898 175.01 469.898 175.011C469.652 176.467 470.446 177.815 471.671 178.021Z" fill="#44F1A6"/>
<path d="M469.898 175.011L467.522 174.611C468.118 171.075 471.012 168.615 473.985 169.115C476.959 169.616 478.886 172.889 478.291 176.425C478.676 174.137 477.429 172.02 475.505 171.695C474.423 171.513 473.357 171.937 472.563 172.749C472.562 172.749 472.56 172.749 472.559 172.748C471.334 172.542 470.143 173.555 469.898 175.011Z" fill="#44F1A6"/>
<path d="M472.559 172.748L473.035 169.924C476.008 170.425 477.936 173.697 477.34 177.234C476.744 180.77 473.851 183.23 470.877 182.729C472.801 183.053 474.674 181.461 475.059 179.173C475.276 177.887 474.977 176.654 474.331 175.764C474.331 175.762 474.331 175.76 474.332 175.758C474.577 174.302 473.783 172.955 472.559 172.748Z" fill="#44F1A6"/>
<path d="M474.332 175.758L476.707 176.159C476.111 179.695 473.218 182.155 470.244 181.654C467.271 181.153 465.343 177.881 465.939 174.344C465.553 176.633 466.8 178.75 468.725 179.074C469.806 179.257 470.872 178.833 471.666 178.021C471.667 178.021 471.669 178.021 471.671 178.021C472.895 178.228 474.086 177.214 474.332 175.758Z" fill="#44F1A6"/>
<path d="M721 244C721 111.176 613.324 1 480.5 1C351.868 1 246.823 101.985 240.319 229" stroke="#44F1A6"/>
<path d="M252.309 230C254.074 195.813 263.336 163.609 278.483 135M710 251.5C710.091 248.845 710 244.678 710 242C710 171.717 678.338 108.83 628.5 66.8227M307.528 92.5C349.522 43.8163 411.662 13 481 13C526.482 13 568.866 26.2591 604.5 49.1227" stroke="#44F1A6"/>
<path d="M28 209L23.5 201L30.5 207.5L34.5 212.5L39 221L42 230L43.5 238.5L47 246L53 253L60 258L65.5 262L68 264.5L50 281.5L45.5 278.5L39.5 271L35.5 261.5L33.5 252C33.1667 244.667 32.4 228.9 32 224.5C31.6 220.1 29.1667 212.333 28 209Z" fill="#1D3F30"/>
<path d="M124.5 246.5L115.5 243.5L120 247L124 251.5L126.5 256.5L127 263.5L126.5 269L124.5 278.5L121 291L117.5 303L114.5 315.5V328.5L118.5 337.5L123.5 341.5L132.5 344.5L141 345L146.5 345.5L138 339L136 335L133.5 329.5L132 321.5V313.688V304.5L133 295L134.5 281L135 271L134 260.5L132.5 255L130 250.5L124.5 246.5Z" fill="#1D3F30"/>
<path d="M934.5 229L939 221L932 227.5L928 232.5L923.5 241L920.5 250L919 258.5L915.5 266L909.5 273L902.5 278L897 282L894.5 284.5L912.5 301.5L917 298.5L923 291L927 281.5L929 272C929.333 264.667 930.1 248.9 930.5 244.5C930.9 240.1 933.333 232.333 934.5 229Z" fill="#1D3F30"/>
<path d="M838 266.5L847 263.5L842.5 267L838.5 271.5L836 276.5L835.5 283.5L836 289L838 298.5L841.5 311L845 323L848 335.5V348.5L844 357.5L839 361.5L830 364.5L821.5 365L816 365.5L824.5 359L826.5 355L829 349.5L830.5 341.5V333.688V324.5L829.5 315L828 301L827.5 291L828.5 280.5L830 275L832.5 270.5L838 266.5Z" fill="#1D3F30"/>
<path d="M18.5 309.5C26.9106 303.602 39.6164 291.412 49.8615 281.5M151.5 347C110 337.5 151.5 259.5 125.5 247C118.617 243.691 112.305 242.438 106.5 242.616M151.5 347C193 356.5 177 385.5 214.5 395M151.5 347C149.938 346.5 145.252 345.4 139 345C131.185 344.5 116.5 343.5 114.5 327C112.136 307.5 125.5 286.5 127 264.341C128.2 246.614 113.833 242.471 106.5 242.616M68 264.341C66.2501 266.009 64.5862 267.59 63 269C59.9558 271.706 55.2489 276.288 49.8615 281.5M68 264.341C60.6667 255.394 45.3 253.6 42.5 234C40.2769 218.438 31.5987 206.709 23 200.222M68 264.341C77.7118 255.082 90.0726 243.119 106.5 242.616M1.49999 194.5C0.833325 194.5 1.49999 194.5 9.49999 194.5C13.1483 194.5 18.061 196.497 23 200.222M23 200.222C26.3333 206.943 31.5 210 32.5 231.5C33.017 242.615 32.5 260 40 272C43.6102 277.776 48.4077 280.5 49.8615 281.5" stroke="#44F1A6"/>
<path d="M944 329.5C935.589 323.602 922.884 311.412 912.638 301.5M811 367C852.5 357.5 811 279.5 837 267C843.883 263.691 850.195 262.438 856 262.616M811 367C769.5 376.5 785.5 405.5 748 415M811 367C812.562 366.5 817.248 365.4 823.5 365C831.315 364.5 846 363.5 848 347C850.364 327.5 837 306.5 835.5 284.341C834.3 266.614 848.667 262.471 856 262.616M894.5 284.341C896.25 286.009 897.914 287.59 899.5 289C902.544 291.706 907.251 296.288 912.638 301.5M894.5 284.341C901.833 275.394 917.2 273.6 920 254C922.223 238.438 930.901 226.709 939.5 220.222M894.5 284.341C884.788 275.082 872.427 263.119 856 262.616M961 214.5C961.667 214.5 961 214.5 953 214.5C949.352 214.5 944.439 216.497 939.5 220.222M939.5 220.222C936.167 226.943 931 230 930 251.5C929.483 262.615 930 280 922.5 292C918.89 297.776 914.092 300.5 912.638 301.5" stroke="#44F1A6"/>
<path d="M290.5 94L275 78H58M1 78H32.5M58 78L46 66H32M58 78H44M1 66H20.5M32 66L44 78M32 66H20.5M44 78H32.5M20.5 66L32.5 78" stroke="#44F1A6"/>
<circle cx="108" cy="113" r="13.5" stroke="#44F1A6"/>
<path d="M116.5 113C116.5 113.606 116.436 113.945 116.36 114.118C116.335 114.174 116.315 114.198 116.307 114.206C116.304 114.206 116.3 114.206 116.294 114.206C116.212 114.206 116.035 114.154 115.721 113.965C115.424 113.786 115.076 113.529 114.668 113.217C114.564 113.138 114.457 113.055 114.347 112.97C113.606 112.398 112.721 111.717 111.754 111.157C110.639 110.512 109.366 110 108 110C106.634 110 105.361 110.512 104.246 111.157C103.279 111.717 102.394 112.398 101.653 112.97C101.543 113.055 101.436 113.138 101.332 113.217C100.924 113.529 100.576 113.786 100.279 113.965C99.965 114.154 99.7875 114.206 99.7057 114.206C99.6998 114.206 99.6956 114.206 99.6929 114.206C99.6852 114.198 99.6652 114.174 99.6402 114.118C99.5642 113.945 99.5 113.606 99.5 113C99.5 108.306 103.306 104.5 108 104.5C112.694 104.5 116.5 108.306 116.5 113ZM116.311 114.205C116.311 114.205 116.311 114.205 116.31 114.205L116.311 114.205ZM99.6886 114.205C99.6886 114.205 99.689 114.205 99.6897 114.205L99.6886 114.205Z" fill="#276C4E" stroke="#44F1A6"/>
<circle cx="146" cy="113" r="13.5" fill="#276C4E" stroke="#44F1A6"/>
<path d="M154.5 113C154.5 113.606 154.436 113.945 154.36 114.118C154.335 114.174 154.315 114.198 154.307 114.206C154.304 114.206 154.3 114.206 154.294 114.206C154.212 114.206 154.035 114.154 153.721 113.965C153.424 113.786 153.076 113.529 152.668 113.217C152.564 113.138 152.457 113.055 152.347 112.97C151.606 112.398 150.721 111.717 149.754 111.157C148.639 110.512 147.366 110 146 110C144.634 110 143.361 110.512 142.246 111.157C141.279 111.717 140.394 112.398 139.653 112.97C139.543 113.055 139.436 113.138 139.332 113.217C138.924 113.529 138.576 113.786 138.279 113.965C137.965 114.154 137.788 114.206 137.706 114.206C137.7 114.206 137.696 114.206 137.693 114.206C137.685 114.198 137.665 114.174 137.64 114.118C137.564 113.945 137.5 113.606 137.5 113C137.5 108.306 141.306 104.5 146 104.5C150.694 104.5 154.5 108.306 154.5 113ZM154.311 114.205C154.311 114.205 154.311 114.205 154.31 114.205L154.311 114.205ZM137.689 114.205C137.689 114.205 137.689 114.205 137.69 114.205L137.689 114.205Z" fill="#3AC589" stroke="#44F1A6"/>
<circle cx="184" cy="113" r="13.5" stroke="#44F1A6"/>
<path d="M192.5 113C192.5 113.606 192.436 113.945 192.36 114.118C192.335 114.174 192.315 114.198 192.307 114.206C192.304 114.206 192.3 114.206 192.294 114.206C192.212 114.206 192.035 114.154 191.721 113.965C191.424 113.786 191.076 113.529 190.668 113.217C190.564 113.138 190.457 113.055 190.347 112.97C189.606 112.398 188.721 111.717 187.754 111.157C186.639 110.512 185.366 110 184 110C182.634 110 181.361 110.512 180.246 111.157C179.279 111.717 178.394 112.398 177.653 112.97C177.543 113.055 177.436 113.138 177.332 113.217C176.924 113.529 176.576 113.786 176.279 113.965C175.965 114.154 175.788 114.206 175.706 114.206C175.7 114.206 175.696 114.206 175.693 114.206C175.685 114.198 175.665 114.174 175.64 114.118C175.564 113.945 175.5 113.606 175.5 113C175.5 108.306 179.306 104.5 184 104.5C188.694 104.5 192.5 108.306 192.5 113ZM192.311 114.205C192.311 114.205 192.311 114.205 192.31 114.205L192.311 114.205ZM175.689 114.205C175.689 114.205 175.689 114.205 175.69 114.205L175.689 114.205Z" fill="#276C4E" stroke="#44F1A6"/>
<circle cx="222" cy="113" r="13.5" stroke="#44F1A6"/>
<path d="M230.5 113C230.5 113.606 230.436 113.945 230.36 114.118C230.335 114.174 230.315 114.198 230.307 114.206C230.304 114.206 230.3 114.206 230.294 114.206C230.212 114.206 230.035 114.154 229.721 113.965C229.424 113.786 229.076 113.529 228.668 113.217C228.564 113.138 228.457 113.055 228.347 112.97C227.606 112.398 226.721 111.717 225.754 111.157C224.639 110.512 223.366 110 222 110C220.634 110 219.361 110.512 218.246 111.157C217.279 111.717 216.394 112.398 215.653 112.97C215.543 113.055 215.436 113.138 215.332 113.217C214.924 113.529 214.576 113.786 214.279 113.965C213.965 114.154 213.788 114.206 213.706 114.206C213.7 114.206 213.696 114.206 213.693 114.206C213.685 114.198 213.665 114.174 213.64 114.118C213.564 113.945 213.5 113.606 213.5 113C213.5 108.306 217.306 104.5 222 104.5C226.694 104.5 230.5 108.306 230.5 113ZM230.311 114.205C230.311 114.205 230.311 114.205 230.31 114.205L230.311 114.205ZM213.689 114.205C213.689 114.205 213.689 114.205 213.69 114.205L213.689 114.205Z" fill="#276C4E" stroke="#44F1A6"/>
<circle cx="108" cy="151" r="13.5" stroke="#44F1A6"/>
<path d="M116.5 151C116.5 151.606 116.436 151.945 116.36 152.118C116.335 152.174 116.315 152.198 116.307 152.206C116.304 152.206 116.3 152.206 116.294 152.206C116.212 152.206 116.035 152.154 115.721 151.965C115.424 151.786 115.076 151.529 114.668 151.217C114.564 151.138 114.457 151.055 114.347 150.97C113.606 150.398 112.721 149.717 111.754 149.157C110.639 148.512 109.366 148 108 148C106.634 148 105.361 148.512 104.246 149.157C103.279 149.717 102.394 150.398 101.653 150.97C101.543 151.055 101.436 151.138 101.332 151.217C100.924 151.529 100.576 151.786 100.279 151.965C99.965 152.154 99.7875 152.206 99.7057 152.206C99.6998 152.206 99.6956 152.206 99.6929 152.206C99.6852 152.198 99.6652 152.174 99.6402 152.118C99.5642 151.945 99.5 151.606 99.5 151C99.5 146.306 103.306 142.5 108 142.5C112.694 142.5 116.5 146.306 116.5 151ZM116.311 152.205C116.311 152.205 116.311 152.205 116.31 152.205L116.311 152.205ZM99.6886 152.205C99.6886 152.205 99.689 152.205 99.6897 152.205L99.6886 152.205Z" fill="#276C4E" stroke="#44F1A6"/>
<circle cx="146" cy="151" r="13.5" stroke="#44F1A6"/>
<path d="M154.5 151C154.5 151.606 154.436 151.945 154.36 152.118C154.335 152.174 154.315 152.198 154.307 152.206C154.304 152.206 154.3 152.206 154.294 152.206C154.212 152.206 154.035 152.154 153.721 151.965C153.424 151.786 153.076 151.529 152.668 151.217C152.564 151.138 152.457 151.055 152.347 150.97C151.606 150.398 150.721 149.717 149.754 149.157C148.639 148.512 147.366 148 146 148C144.634 148 143.361 148.512 142.246 149.157C141.279 149.717 140.394 150.398 139.653 150.97C139.543 151.055 139.436 151.138 139.332 151.217C138.924 151.529 138.576 151.786 138.279 151.965C137.965 152.154 137.788 152.206 137.706 152.206C137.7 152.206 137.696 152.206 137.693 152.206C137.685 152.198 137.665 152.174 137.64 152.118C137.564 151.945 137.5 151.606 137.5 151C137.5 146.306 141.306 142.5 146 142.5C150.694 142.5 154.5 146.306 154.5 151ZM154.311 152.205C154.311 152.205 154.311 152.205 154.31 152.205L154.311 152.205ZM137.689 152.205C137.689 152.205 137.689 152.205 137.69 152.205L137.689 152.205Z" fill="#276C4E" stroke="#44F1A6"/>
<circle cx="184" cy="151" r="13.5" stroke="#44F1A6"/>
<path d="M192.5 151C192.5 151.606 192.436 151.945 192.36 152.118C192.335 152.174 192.315 152.198 192.307 152.206C192.304 152.206 192.3 152.206 192.294 152.206C192.212 152.206 192.035 152.154 191.721 151.965C191.424 151.786 191.076 151.529 190.668 151.217C190.564 151.138 190.457 151.055 190.347 150.97C189.606 150.398 188.721 149.717 187.754 149.157C186.639 148.512 185.366 148 184 148C182.634 148 181.361 148.512 180.246 149.157C179.279 149.717 178.394 150.398 177.653 150.97C177.543 151.055 177.436 151.138 177.332 151.217C176.924 151.529 176.576 151.786 176.279 151.965C175.965 152.154 175.788 152.206 175.706 152.206C175.7 152.206 175.696 152.206 175.693 152.206C175.685 152.198 175.665 152.174 175.64 152.118C175.564 151.945 175.5 151.606 175.5 151C175.5 146.306 179.306 142.5 184 142.5C188.694 142.5 192.5 146.306 192.5 151ZM192.311 152.205C192.311 152.205 192.311 152.205 192.31 152.205L192.311 152.205ZM175.689 152.205C175.689 152.205 175.689 152.205 175.69 152.205L175.689 152.205Z" fill="#276C4E" stroke="#44F1A6"/>
<circle cx="222" cy="151" r="13.5" stroke="#44F1A6"/>
<path d="M230.5 151C230.5 151.606 230.436 151.945 230.36 152.118C230.335 152.174 230.315 152.198 230.307 152.206C230.304 152.206 230.3 152.206 230.294 152.206C230.212 152.206 230.035 152.154 229.721 151.965C229.424 151.786 229.076 151.529 228.668 151.217C228.564 151.138 228.457 151.055 228.347 150.97C227.606 150.398 226.721 149.717 225.754 149.157C224.639 148.512 223.366 148 222 148C220.634 148 219.361 148.512 218.246 149.157C217.279 149.717 216.394 150.398 215.653 150.97C215.543 151.055 215.436 151.138 215.332 151.217C214.924 151.529 214.576 151.786 214.279 151.965C213.965 152.154 213.788 152.206 213.706 152.206C213.7 152.206 213.696 152.206 213.693 152.206C213.685 152.198 213.665 152.174 213.64 152.118C213.564 151.945 213.5 151.606 213.5 151C213.5 146.306 217.306 142.5 222 142.5C226.694 142.5 230.5 146.306 230.5 151ZM230.311 152.205C230.311 152.205 230.311 152.205 230.31 152.205L230.311 152.205ZM213.689 152.205C213.689 152.205 213.689 152.205 213.69 152.205L213.689 152.205Z" fill="#276C4E" stroke="#44F1A6"/>
<circle cx="222" cy="151" r="13.5" fill="#276C4E" stroke="#44F1A6"/>
<path d="M230.5 151C230.5 151.606 230.436 151.945 230.36 152.118C230.335 152.174 230.315 152.198 230.307 152.206C230.304 152.206 230.3 152.206 230.294 152.206C230.212 152.206 230.035 152.154 229.721 151.965C229.424 151.786 229.076 151.529 228.668 151.217C228.564 151.138 228.457 151.055 228.347 150.97C227.606 150.398 226.721 149.717 225.754 149.157C224.639 148.512 223.366 148 222 148C220.634 148 219.361 148.512 218.246 149.157C217.279 149.717 216.394 150.398 215.653 150.97C215.543 151.055 215.436 151.138 215.332 151.217C214.924 151.529 214.576 151.786 214.279 151.965C213.965 152.154 213.788 152.206 213.706 152.206C213.7 152.206 213.696 152.206 213.693 152.206C213.685 152.198 213.665 152.174 213.64 152.118C213.564 151.945 213.5 151.606 213.5 151C213.5 146.306 217.306 142.5 222 142.5C226.694 142.5 230.5 146.306 230.5 151ZM230.311 152.205C230.311 152.205 230.311 152.205 230.31 152.205L230.311 152.205ZM213.689 152.205C213.689 152.205 213.689 152.205 213.69 152.205L213.689 152.205Z" fill="#3AC589" stroke="#44F1A6"/>
<path d="M671 94L686.5 78H903.5M960.5 78H929M903.5 78L915.5 66H929.5M903.5 78H917.5M960.5 66H941M929.5 66L917.5 78M929.5 66H941M917.5 78H929M941 66L929 78" stroke="#44F1A6"/>
<circle r="13.5" transform="matrix(-1 0 0 1 853.5 113)" stroke="#44F1A6"/>
<path d="M845 113C845 113.606 845.064 113.945 845.14 114.118C845.165 114.174 845.185 114.198 845.193 114.206C845.196 114.206 845.2 114.206 845.206 114.206C845.288 114.206 845.465 114.154 845.779 113.965C846.076 113.786 846.424 113.529 846.832 113.217C846.936 113.138 847.043 113.055 847.153 112.97C847.894 112.398 848.779 111.717 849.746 111.157C850.861 110.512 852.134 110 853.5 110C854.866 110 856.139 110.512 857.254 111.157C858.221 111.717 859.106 112.398 859.847 112.97C859.957 113.055 860.064 113.138 860.168 113.217C860.576 113.529 860.924 113.786 861.221 113.965C861.535 114.154 861.712 114.206 861.794 114.206C861.8 114.206 861.804 114.206 861.807 114.206C861.815 114.198 861.835 114.174 861.86 114.118C861.936 113.945 862 113.606 862 113C862 108.306 858.194 104.5 853.5 104.5C848.806 104.5 845 108.306 845 113ZM845.189 114.205C845.189 114.205 845.189 114.205 845.19 114.205L845.189 114.205ZM861.811 114.205C861.811 114.205 861.811 114.205 861.81 114.205L861.811 114.205Z" fill="#276C4E" stroke="#44F1A6"/>
<circle r="13.5" transform="matrix(-1 0 0 1 815.5 113)" stroke="#44F1A6"/>
<path d="M807 113C807 113.606 807.064 113.945 807.14 114.118C807.165 114.174 807.185 114.198 807.193 114.206C807.196 114.206 807.2 114.206 807.206 114.206C807.288 114.206 807.465 114.154 807.779 113.965C808.076 113.786 808.424 113.529 808.832 113.217C808.936 113.138 809.043 113.055 809.153 112.97C809.894 112.398 810.779 111.717 811.746 111.157C812.861 110.512 814.134 110 815.5 110C816.866 110 818.139 110.512 819.254 111.157C820.221 111.717 821.106 112.398 821.847 112.97C821.957 113.055 822.064 113.138 822.168 113.217C822.576 113.529 822.924 113.786 823.221 113.965C823.535 114.154 823.712 114.206 823.794 114.206C823.8 114.206 823.804 114.206 823.807 114.206C823.815 114.198 823.835 114.174 823.86 114.118C823.936 113.945 824 113.606 824 113C824 108.306 820.194 104.5 815.5 104.5C810.806 104.5 807 108.306 807 113ZM807.189 114.205C807.189 114.205 807.189 114.205 807.19 114.205L807.189 114.205ZM823.811 114.205C823.811 114.205 823.811 114.205 823.81 114.205L823.811 114.205Z" fill="#276C4E" stroke="#44F1A6"/>
<circle cx="816" cy="113" r="13.5" fill="#276C4E" stroke="#44F1A6"/>
<path d="M824.5 113C824.5 113.606 824.436 113.945 824.36 114.118C824.335 114.174 824.315 114.198 824.307 114.206C824.304 114.206 824.3 114.206 824.294 114.206C824.212 114.206 824.035 114.154 823.721 113.965C823.424 113.786 823.076 113.529 822.668 113.217C822.564 113.138 822.457 113.055 822.347 112.97C821.606 112.398 820.721 111.717 819.754 111.157C818.639 110.512 817.366 110 816 110C814.634 110 813.361 110.512 812.246 111.157C811.279 111.717 810.394 112.398 809.653 112.97C809.543 113.055 809.436 113.138 809.332 113.217C808.924 113.529 808.576 113.786 808.279 113.965C807.965 114.154 807.788 114.206 807.706 114.206C807.7 114.206 807.696 114.206 807.693 114.206C807.685 114.198 807.665 114.174 807.64 114.118C807.564 113.945 807.5 113.606 807.5 113C807.5 108.306 811.306 104.5 816 104.5C820.694 104.5 824.5 108.306 824.5 113ZM824.311 114.205C824.311 114.205 824.311 114.205 824.31 114.205L824.311 114.205ZM807.689 114.205C807.689 114.205 807.689 114.205 807.69 114.205L807.689 114.205Z" fill="#3AC589" stroke="#44F1A6"/>
<circle r="13.5" transform="matrix(-1 0 0 1 777.5 113)" stroke="#44F1A6"/>
<path d="M769 113C769 113.606 769.064 113.945 769.14 114.118C769.165 114.174 769.185 114.198 769.193 114.206C769.196 114.206 769.2 114.206 769.206 114.206C769.288 114.206 769.465 114.154 769.779 113.965C770.076 113.786 770.424 113.529 770.832 113.217C770.936 113.138 771.043 113.055 771.153 112.97C771.894 112.398 772.779 111.717 773.746 111.157C774.861 110.512 776.134 110 777.5 110C778.866 110 780.139 110.512 781.254 111.157C782.221 111.717 783.106 112.398 783.847 112.97C783.957 113.055 784.064 113.138 784.168 113.217C784.576 113.529 784.924 113.786 785.221 113.965C785.535 114.154 785.712 114.206 785.794 114.206C785.8 114.206 785.804 114.206 785.807 114.206C785.815 114.198 785.835 114.174 785.86 114.118C785.936 113.945 786 113.606 786 113C786 108.306 782.194 104.5 777.5 104.5C772.806 104.5 769 108.306 769 113ZM769.189 114.205C769.189 114.205 769.189 114.205 769.19 114.205L769.189 114.205ZM785.811 114.205C785.811 114.205 785.811 114.205 785.81 114.205L785.811 114.205Z" fill="#276C4E" stroke="#44F1A6"/>
<circle r="13.5" transform="matrix(-1 0 0 1 739.5 113)" stroke="#44F1A6"/>
<path d="M731 113C731 113.606 731.064 113.945 731.14 114.118C731.165 114.174 731.185 114.198 731.193 114.206C731.196 114.206 731.2 114.206 731.206 114.206C731.288 114.206 731.465 114.154 731.779 113.965C732.076 113.786 732.424 113.529 732.832 113.217C732.936 113.138 733.043 113.055 733.153 112.97C733.894 112.398 734.779 111.717 735.746 111.157C736.861 110.512 738.134 110 739.5 110C740.866 110 742.139 110.512 743.254 111.157C744.221 111.717 745.106 112.398 745.847 112.97C745.957 113.055 746.064 113.138 746.168 113.217C746.576 113.529 746.924 113.786 747.221 113.965C747.535 114.154 747.712 114.206 747.794 114.206C747.8 114.206 747.804 114.206 747.807 114.206C747.815 114.198 747.835 114.174 747.86 114.118C747.936 113.945 748 113.606 748 113C748 108.306 744.194 104.5 739.5 104.5C734.806 104.5 731 108.306 731 113ZM731.189 114.205C731.189 114.205 731.189 114.205 731.19 114.205L731.189 114.205ZM747.811 114.205C747.811 114.205 747.811 114.205 747.81 114.205L747.811 114.205Z" fill="#276C4E" stroke="#44F1A6"/>
<circle r="13.5" transform="matrix(-1 0 0 1 853.5 151)" stroke="#44F1A6"/>
<path d="M845 151C845 151.606 845.064 151.945 845.14 152.118C845.165 152.174 845.185 152.198 845.193 152.206C845.196 152.206 845.2 152.206 845.206 152.206C845.288 152.206 845.465 152.154 845.779 151.965C846.076 151.786 846.424 151.529 846.832 151.217C846.936 151.138 847.043 151.055 847.153 150.97C847.894 150.398 848.779 149.717 849.746 149.157C850.861 148.512 852.134 148 853.5 148C854.866 148 856.139 148.512 857.254 149.157C858.221 149.717 859.106 150.398 859.847 150.97C859.957 151.055 860.064 151.138 860.168 151.217C860.576 151.529 860.924 151.786 861.221 151.965C861.535 152.154 861.712 152.206 861.794 152.206C861.8 152.206 861.804 152.206 861.807 152.206C861.815 152.198 861.835 152.174 861.86 152.118C861.936 151.945 862 151.606 862 151C862 146.306 858.194 142.5 853.5 142.5C848.806 142.5 845 146.306 845 151ZM845.189 152.205C845.189 152.205 845.189 152.205 845.19 152.205L845.189 152.205ZM861.811 152.205C861.811 152.205 861.811 152.205 861.81 152.205L861.811 152.205Z" fill="#276C4E" stroke="#44F1A6"/>
<circle cx="854" cy="151" r="13.5" fill="#276C4E" stroke="#44F1A6"/>
<path d="M862.5 151C862.5 151.606 862.436 151.945 862.36 152.118C862.335 152.174 862.315 152.198 862.307 152.206C862.304 152.206 862.3 152.206 862.294 152.206C862.212 152.206 862.035 152.154 861.721 151.965C861.424 151.786 861.076 151.529 860.668 151.217C860.564 151.138 860.457 151.055 860.347 150.97C859.606 150.398 858.721 149.717 857.754 149.157C856.639 148.512 855.366 148 854 148C852.634 148 851.361 148.512 850.246 149.157C849.279 149.717 848.394 150.398 847.653 150.97C847.543 151.055 847.436 151.138 847.332 151.217C846.924 151.529 846.576 151.786 846.279 151.965C845.965 152.154 845.788 152.206 845.706 152.206C845.7 152.206 845.696 152.206 845.693 152.206C845.685 152.198 845.665 152.174 845.64 152.118C845.564 151.945 845.5 151.606 845.5 151C845.5 146.306 849.306 142.5 854 142.5C858.694 142.5 862.5 146.306 862.5 151ZM862.311 152.205C862.311 152.205 862.311 152.205 862.31 152.205L862.311 152.205ZM845.689 152.205C845.689 152.205 845.689 152.205 845.69 152.205L845.689 152.205Z" fill="#3AC589" stroke="#44F1A6"/>
<circle r="13.5" transform="matrix(-1 0 0 1 815.5 151)" stroke="#44F1A6"/>
<path d="M807 151C807 151.606 807.064 151.945 807.14 152.118C807.165 152.174 807.185 152.198 807.193 152.206C807.196 152.206 807.2 152.206 807.206 152.206C807.288 152.206 807.465 152.154 807.779 151.965C808.076 151.786 808.424 151.529 808.832 151.217C808.936 151.138 809.043 151.055 809.153 150.97C809.894 150.398 810.779 149.717 811.746 149.157C812.861 148.512 814.134 148 815.5 148C816.866 148 818.139 148.512 819.254 149.157C820.221 149.717 821.106 150.398 821.847 150.97C821.957 151.055 822.064 151.138 822.168 151.217C822.576 151.529 822.924 151.786 823.221 151.965C823.535 152.154 823.712 152.206 823.794 152.206C823.8 152.206 823.804 152.206 823.807 152.206C823.815 152.198 823.835 152.174 823.86 152.118C823.936 151.945 824 151.606 824 151C824 146.306 820.194 142.5 815.5 142.5C810.806 142.5 807 146.306 807 151ZM807.189 152.205C807.189 152.205 807.189 152.205 807.19 152.205L807.189 152.205ZM823.811 152.205C823.811 152.205 823.811 152.205 823.81 152.205L823.811 152.205Z" fill="#276C4E" stroke="#44F1A6"/>
<circle r="13.5" transform="matrix(-1 0 0 1 777.5 151)" stroke="#44F1A6"/>
<path d="M769 151C769 151.606 769.064 151.945 769.14 152.118C769.165 152.174 769.185 152.198 769.193 152.206C769.196 152.206 769.2 152.206 769.206 152.206C769.288 152.206 769.465 152.154 769.779 151.965C770.076 151.786 770.424 151.529 770.832 151.217C770.936 151.138 771.043 151.055 771.153 150.97C771.894 150.398 772.779 149.717 773.746 149.157C774.861 148.512 776.134 148 777.5 148C778.866 148 780.139 148.512 781.254 149.157C782.221 149.717 783.106 150.398 783.847 150.97C783.957 151.055 784.064 151.138 784.168 151.217C784.576 151.529 784.924 151.786 785.221 151.965C785.535 152.154 785.712 152.206 785.794 152.206C785.8 152.206 785.804 152.206 785.807 152.206C785.815 152.198 785.835 152.174 785.86 152.118C785.936 151.945 786 151.606 786 151C786 146.306 782.194 142.5 777.5 142.5C772.806 142.5 769 146.306 769 151ZM769.189 152.205C769.189 152.205 769.189 152.205 769.19 152.205L769.189 152.205ZM785.811 152.205C785.811 152.205 785.811 152.205 785.81 152.205L785.811 152.205Z" fill="#276C4E" stroke="#44F1A6"/>
<circle r="13.5" transform="matrix(-1 0 0 1 739.5 151)" stroke="#44F1A6"/>
<path d="M731 151C731 151.606 731.064 151.945 731.14 152.118C731.165 152.174 731.185 152.198 731.193 152.206C731.196 152.206 731.2 152.206 731.206 152.206C731.288 152.206 731.465 152.154 731.779 151.965C732.076 151.786 732.424 151.529 732.832 151.217C732.936 151.138 733.043 151.055 733.153 150.97C733.894 150.398 734.779 149.717 735.746 149.157C736.861 148.512 738.134 148 739.5 148C740.866 148 742.139 148.512 743.254 149.157C744.221 149.717 745.106 150.398 745.847 150.97C745.957 151.055 746.064 151.138 746.168 151.217C746.576 151.529 746.924 151.786 747.221 151.965C747.535 152.154 747.712 152.206 747.794 152.206C747.8 152.206 747.804 152.206 747.807 152.206C747.815 152.198 747.835 152.174 747.86 152.118C747.936 151.945 748 151.606 748 151C748 146.306 744.194 142.5 739.5 142.5C734.806 142.5 731 146.306 731 151ZM731.189 152.205C731.189 152.205 731.189 152.205 731.19 152.205L731.189 152.205ZM747.811 152.205C747.811 152.205 747.811 152.205 747.81 152.205L747.811 152.205Z" fill="#276C4E" stroke="#44F1A6"/>
<circle cx="740" cy="151" r="13.5" fill="#276C4E" stroke="#44F1A6"/>
<path d="M748.5 151C748.5 151.606 748.436 151.945 748.36 152.118C748.335 152.174 748.315 152.198 748.307 152.206C748.304 152.206 748.3 152.206 748.294 152.206C748.212 152.206 748.035 152.154 747.721 151.965C747.424 151.786 747.076 151.529 746.668 151.217C746.564 151.138 746.457 151.055 746.347 150.97C745.606 150.398 744.721 149.717 743.754 149.157C742.639 148.512 741.366 148 740 148C738.634 148 737.361 148.512 736.246 149.157C735.279 149.717 734.394 150.398 733.653 150.97C733.543 151.055 733.436 151.138 733.332 151.217C732.924 151.529 732.576 151.786 732.279 151.965C731.965 152.154 731.788 152.206 731.706 152.206C731.7 152.206 731.696 152.206 731.693 152.206C731.685 152.198 731.665 152.174 731.64 152.118C731.564 151.945 731.5 151.606 731.5 151C731.5 146.306 735.306 142.5 740 142.5C744.694 142.5 748.5 146.306 748.5 151ZM748.311 152.205C748.311 152.205 748.311 152.205 748.31 152.205L748.311 152.205ZM731.689 152.205C731.689 152.205 731.689 152.205 731.69 152.205L731.689 152.205Z" fill="#3AC589" stroke="#44F1A6"/>
<path fill-rule="evenodd" clip-rule="evenodd" d="M5 101C5 102.105 4.10457 103 3 103C1.89543 103 1 102.105 1 101C1 99.8954 1.89543 99 3 99C4.10457 99 5 99.8954 5 101ZM15 101C15 102.105 14.1046 103 13 103C11.8954 103 11 102.105 11 101C11 99.8954 11.8954 99 13 99C14.1046 99 15 99.8954 15 101ZM23 103C24.1046 103 25 102.105 25 101C25 99.8954 24.1046 99 23 99C21.8954 99 21 99.8954 21 101C21 102.105 21.8954 103 23 103ZM35 101C35 102.105 34.1046 103 33 103C31.8954 103 31 102.105 31 101C31 99.8954 31.8954 99 33 99C34.1046 99 35 99.8954 35 101ZM43 103C44.1046 103 45 102.105 45 101C45 99.8954 44.1046 99 43 99C41.8954 99 41 99.8954 41 101C41 102.105 41.8954 103 43 103ZM5 111C5 112.105 4.10457 113 3 113C1.89543 113 1 112.105 1 111C1 109.895 1.89543 109 3 109C4.10457 109 5 109.895 5 111ZM15 111C15 112.105 14.1046 113 13 113C11.8954 113 11 112.105 11 111C11 109.895 11.8954 109 13 109C14.1046 109 15 109.895 15 111ZM23 113C24.1046 113 25 112.105 25 111C25 109.895 24.1046 109 23 109C21.8954 109 21 109.895 21 111C21 112.105 21.8954 113 23 113ZM35 111C35 112.105 34.1046 113 33 113C31.8954 113 31 112.105 31 111C31 109.895 31.8954 109 33 109C34.1046 109 35 109.895 35 111ZM43 113C44.1046 113 45 112.105 45 111C45 109.895 44.1046 109 43 109C41.8954 109 41 109.895 41 111C41 112.105 41.8954 113 43 113ZM3 123C4.10457 123 5 122.105 5 121C5 119.895 4.10457 119 3 119C1.89543 119 1 119.895 1 121C1 122.105 1.89543 123 3 123ZM13 123C14.1046 123 15 122.105 15 121C15 119.895 14.1046 119 13 119C11.8954 119 11 119.895 11 121C11 122.105 11.8954 123 13 123ZM25 121C25 122.105 24.1046 123 23 123C21.8954 123 21 122.105 21 121C21 119.895 21.8954 119 23 119C24.1046 119 25 119.895 25 121ZM33 123C34.1046 123 35 122.105 35 121C35 119.895 34.1046 119 33 119C31.8954 119 31 119.895 31 121C31 122.105 31.8954 123 33 123ZM45 121C45 122.105 44.1046 123 43 123C41.8954 123 41 122.105 41 121C41 119.895 41.8954 119 43 119C44.1046 119 45 119.895 45 121Z" fill="#44F1A6"/>
<path fill-rule="evenodd" clip-rule="evenodd" d="M921 101C921 102.105 920.105 103 919 103C917.895 103 917 102.105 917 101C917 99.8954 917.895 99 919 99C920.105 99 921 99.8954 921 101ZM931 101C931 102.105 930.105 103 929 103C927.895 103 927 102.105 927 101C927 99.8954 927.895 99 929 99C930.105 99 931 99.8954 931 101ZM939 103C940.105 103 941 102.105 941 101C941 99.8954 940.105 99 939 99C937.895 99 937 99.8954 937 101C937 102.105 937.895 103 939 103ZM951 101C951 102.105 950.105 103 949 103C947.895 103 947 102.105 947 101C947 99.8954 947.895 99 949 99C950.105 99 951 99.8954 951 101ZM959 103C960.105 103 961 102.105 961 101C961 99.8954 960.105 99 959 99C957.895 99 957 99.8954 957 101C957 102.105 957.895 103 959 103ZM921 111C921 112.105 920.105 113 919 113C917.895 113 917 112.105 917 111C917 109.895 917.895 109 919 109C920.105 109 921 109.895 921 111ZM931 111C931 112.105 930.105 113 929 113C927.895 113 927 112.105 927 111C927 109.895 927.895 109 929 109C930.105 109 931 109.895 931 111ZM939 113C940.105 113 941 112.105 941 111C941 109.895 940.105 109 939 109C937.895 109 937 109.895 937 111C937 112.105 937.895 113 939 113ZM951 111C951 112.105 950.105 113 949 113C947.895 113 947 112.105 947 111C947 109.895 947.895 109 949 109C950.105 109 951 109.895 951 111ZM959 113C960.105 113 961 112.105 961 111C961 109.895 960.105 109 959 109C957.895 109 957 109.895 957 111C957 112.105 957.895 113 959 113ZM919 123C920.105 123 921 122.105 921 121C921 119.895 920.105 119 919 119C917.895 119 917 119.895 917 121C917 122.105 917.895 123 919 123ZM929 123C930.105 123 931 122.105 931 121C931 119.895 930.105 119 929 119C927.895 119 927 119.895 927 121C927 122.105 927.895 123 929 123ZM941 121C941 122.105 940.105 123 939 123C937.895 123 937 122.105 937 121C937 119.895 937.895 119 939 119C940.105 119 941 119.895 941 121ZM949 123C950.105 123 951 122.105 951 121C951 119.895 950.105 119 949 119C947.895 119 947 119.895 947 121C947 122.105 947.895 123 949 123ZM961 121C961 122.105 960.105 123 959 123C957.895 123 957 122.105 957 121C957 119.895 957.895 119 959 119C960.105 119 961 119.895 961 121Z" fill="#44F1A6"/>
<path d="M353.5 51.8704L361.314 62" stroke="#44F1A6"/>
<path d="M551.5 12L547.854 22.5" stroke="#44F1A6"/>
<path d="M668.5 110.5L657.5 118.457" stroke="#44F1A6"/>
<path d="M247.5 180.5L260 182.431" stroke="#44F1A6"/>
<path d="M242.5 208H132" stroke="#44F1A6"/>
<path d="M779 208H718.5" stroke="#44F1A6"/>
<path d="M743.5 229H720.5" stroke="#44F1A6"/>
<path fill-rule="evenodd" clip-rule="evenodd" d="M137.884 210.289L139.047 207.789L139.953 208.211L138.791 210.711L137.884 210.289ZM155.093 216.289L159.047 207.789L159.953 208.211L156 216.711L155.093 216.289ZM169.047 207.789L164.047 218.539L164.953 218.961L169.953 208.211L169.047 207.789ZM173.047 220.689L179.047 207.789L179.953 208.211L173.953 221.111L173.047 220.689ZM189.047 207.789L182.07 222.789L182.977 223.211L189.953 208.211L189.047 207.789ZM191.372 224.289L199.047 207.789L199.953 208.211L192.279 224.711L191.372 224.289ZM208.047 207.789L199.907 225.289L200.814 225.711L208.953 208.211L208.047 207.789ZM209.209 226.789L218.047 207.789L218.953 208.211L210.116 227.211L209.209 226.789ZM228.047 207.789L218.977 227.289L219.884 227.711L228.953 208.211L228.047 207.789ZM238.047 207.789L228.547 228.214L229.453 228.636L238.953 208.211L238.047 207.789ZM148.547 207.789L146.047 213.164L146.953 213.586L149.453 208.211L148.547 207.789ZM240.698 219.289L236.512 228.289L237.418 228.711L241.605 219.711L240.698 219.289Z" fill="#44F1A6"/>
<path fill-rule="evenodd" clip-rule="evenodd" d="M773.453 211.114L771.907 207.789L771 208.211L772.547 211.536L773.453 211.114ZM761.907 207.789L765.628 215.789L764.721 216.211L761 208.211L761.907 207.789ZM758.488 219.789L752.907 207.789L752 208.211L757.581 220.211L758.488 219.789ZM742.907 207.789L750.814 224.789L749.907 225.211L742 208.211L742.907 207.789ZM742.907 229.289L732.907 207.789L732 208.211L742 229.711L742.907 229.289ZM732.455 228.793L722.909 207.793L721.998 208.207L731.545 229.207L732.455 228.793ZM720.167 218.784L724.951 228.784L724.049 229.216L719.265 219.216L720.167 218.784Z" fill="#44F1A6"/>
<path fill-rule="evenodd" clip-rule="evenodd" d="M874 221H882V222H874V221ZM864 238H872V239H864V238ZM892 226H884V227H892V226Z" fill="#44F1A6"/>
<path fill-rule="evenodd" clip-rule="evenodd" d="M529 409H537V410H529V409ZM539 419H547V420H539V419ZM557 414H549V415H557V414Z" fill="#44F1A6"/>
<path fill-rule="evenodd" clip-rule="evenodd" d="M94 225L86 225L86 224L94 224L94 225ZM84 215L76 215L76 214L84 214L84 215ZM66 220L74 220L74 219L66 219L66 220Z" fill="#44F1A6"/>
<path d="M339 281C330.2 285 245.333 329.333 204 351" stroke="#44F1A6"/>
<path d="M613 307C621.8 311 739 386 739 386" stroke="#44F1A6"/>
<path d="M629 300C637.8 304 747 366 747 366" stroke="#44F1A6"/>
<path d="M647 292C655.8 296 756 348.5 756 348.5" stroke="#44F1A6"/>
<path d="M664 284C672.8 288 763 328 763 328" stroke="#44F1A6"/>
<path d="M678 274C686.8 278 770 306 770 306" stroke="#44F1A6"/>
<path d="M329 271C320.2 275 187 330 187 330" stroke="#44F1A6"/>
<path d="M315 260C306.2 264 178 309 178 309" stroke="#44F1A6"/>
<path d="M301 251C292.2 255 172 289 172 289" stroke="#44F1A6"/>
<path d="M284 241C275.2 245 169 270.5 169 270.5" stroke="#44F1A6"/>
<defs>
<linearGradient id="paint0_linear" x1="488.25" y1="66" x2="488.25" y2="331.5" gradientUnits="userSpaceOnUse">
<stop stop-color="#1D3F30"/>
<stop offset="1" stop-color="#1D3F30" stop-opacity="0"/>
</linearGradient>
<linearGradient id="paint1_linear" x1="499.627" y1="339.493" x2="465.948" y2="369.477" gradientUnits="userSpaceOnUse">
<stop stop-color="#1D3F30"/>
<stop offset="1" stop-color="#1D3F30" stop-opacity="0"/>
</linearGradient>
<linearGradient id="paint2_linear" x1="294.5" y1="411" x2="241.5" y2="476" gradientUnits="userSpaceOnUse">
<stop stop-color="#1D3F30"/>
<stop offset="1" stop-color="#1D3F30" stop-opacity="0"/>
</linearGradient>
</defs>
</svg>
