<svg viewBox="0 0 38 38" xmlns="http://www.w3.org/2000/svg"><path d="m1.29 6.48c-1.29 2.52-1.29 5.87-1.29 12.52s0 10 1.29 12.52a11.94 11.94 0 0 0 5.19 5.19c2.52 1.29 5.87 1.29 12.52 1.29s10 0 12.52-1.29a11.94 11.94 0 0 0 5.19-5.19c1.29-2.52 1.29-5.87 1.29-12.52s0-10-1.29-12.52a11.94 11.94 0 0 0 -5.19-5.19c-2.52-1.29-5.87-1.29-12.52-1.29s-10 0-12.52 1.29a11.94 11.94 0 0 0 -5.19 5.19zm27.19 3.77a1.22 1.22 0 0 1 .88.37 1.25 1.25 0 0 1 .36.88c-.06 3.54-.2 6.25-.45 8.39a17.62 17.62 0 0 1 -1.19 5 7.93 7.93 0 0 1 -1.4 2.18 11 11 0 0 1 -2.52 1.93c-.4.24-.81.47-1.24.71-.92.53-1.93 1.1-3.08 1.87a1.22 1.22 0 0 1 -1.37 0c-1.17-.78-2.2-1.36-3.13-1.89l-.6-.34a12.93 12.93 0 0 1 -2.92-2.1 7.36 7.36 0 0 1 -1.46-2.09 14.51 14.51 0 0 1 -1.16-4.16 71 71 0 0 1 -.6-9.52 1.2 1.2 0 0 1 .4-.86 1.22 1.22 0 0 1 .88-.37h.51a13 13 0 0 0 8.05-2.49 1.26 1.26 0 0 1 1.52 0 13 13 0 0 0 8.04 2.49zm-2.76 13.87a12 12 0 0 0 1-3.47 64.57 64.57 0 0 0 .55-7.94 15.19 15.19 0 0 1 -8.07-2.46 15.23 15.23 0 0 1 -8.06 2.46c.07 2.88.2 5.13.4 6.89a15.45 15.45 0 0 0 1 4.32 5.31 5.31 0 0 0 1 1.5 8.35 8.35 0 0 0 2 1.49c.36.22.74.44 1.17.68.75.42 1.61.91 2.57 1.52 1-.6 1.8-1.08 2.54-1.51l.65-.36a11.4 11.4 0 0 0 2.39-1.68 5.23 5.23 0 0 0 .86-1.44z" fill="#fff" fill-rule="evenodd"/></svg>